<?xml version="1.0" standalone="no"?>
<!DOCTYPE svg PUBLIC "-//W3C//DTD SVG 20010904//EN"
 "http://www.w3.org/TR/2001/REC-SVG-20010904/DTD/svg10.dtd">
<svg version="1.0" xmlns="http://www.w3.org/2000/svg"
 width="430.000000pt" height="430.000000pt" viewBox="0 0 430.000000 430.000000"
 preserveAspectRatio="xMidYMid meet">

<g transform="translate(0.000000,430.000000) scale(0.100000,-0.100000)"
fill="#9ACD67" stroke="none">
<path d="M634 4130 c-14 -42 -19 -82 -19 -165 0 -98 3 -116 26 -166 16 -33 57
-88 99 -133 126 -133 261 -180 515 -179 153 0 241 12 710 102 389 74 406 76
655 76 222 0 226 -1 298 -28 105 -41 184 -90 263 -164 81 -77 128 -150 163
-253 65 -197 33 -388 -85 -494 -63 -56 -124 -76 -235 -76 -75 0 -88 3 -160 40
-44 21 -119 69 -167 106 -49 36 -90 64 -93 61 -19 -19 126 -211 215 -284 90
-74 143 -93 268 -100 139 -7 196 5 282 61 129 83 198 178 236 326 19 74 22
229 5 321 -65 355 -369 647 -761 728 -153 32 -389 30 -599 -5 -52 -8 -214 -42
-360 -74 -531 -117 -567 -123 -750 -124 -151 -1 -170 1 -222 22 -124 50 -214
170 -238 317 -7 39 -15 86 -19 105 l-7 35 -20 -55z"/>
<path d="M1775 3170 c-544 -185 -747 -256 -793 -279 l-33 -17 60 -122 c33 -67
62 -122 65 -122 2 0 165 59 363 131 197 72 378 138 403 146 l45 14 46 -51 c25
-27 104 -129 175 -224 71 -96 132 -175 137 -175 4 -1 7 72 7 162 1 89 5 276
10 415 8 239 7 283 -9 281 -3 0 -217 -72 -476 -159z"/>
<path d="M1854 2089 c4 -186 3 -299 -3 -309 -15 -23 -58 5 -176 110 -55 50
-125 107 -155 127 -189 128 -426 134 -634 17 -70 -39 -178 -145 -234 -228
-139 -207 -159 -539 -47 -771 88 -184 283 -369 489 -465 138 -65 176 -72 421
-77 262 -6 336 3 649 78 356 85 508 118 586 129 132 17 312 22 405 11 145 -17
255 -84 321 -197 26 -44 29 -58 29 -134 -1 -59 -8 -107 -23 -158 -13 -41 -21
-79 -19 -85 5 -17 84 149 96 203 18 78 13 204 -10 272 -63 188 -247 315 -489
338 -193 18 -350 -4 -880 -124 -315 -72 -420 -86 -636 -86 -207 0 -281 13
-400 71 -157 77 -281 211 -334 360 -31 89 -38 241 -15 328 51 195 175 320 348
352 160 30 292 -41 385 -206 l39 -70 59 -6 c33 -3 79 -12 104 -19 71 -19 282
-107 449 -187 85 -40 156 -72 158 -70 2 2 -10 55 -27 118 -35 136 -64 272 -86
412 -9 56 -22 113 -29 127 -14 26 -253 327 -313 394 l-35 40 7 -295z"/>
<path d="M2131 2318 c24 -45 99 -135 157 -189 54 -50 74 -61 213 -113 179 -67
179 -67 179 -60 0 3 -17 31 -37 62 -62 93 -158 182 -248 229 -85 44 -219 93
-255 93 -18 0 -19 -3 -9 -22z"/>
<path d="M2612 2289 c3 -8 50 -50 105 -94 230 -185 408 -323 411 -320 2 2 -17
44 -43 93 -62 120 -180 248 -268 292 -72 35 -214 55 -205 29z"/>
</g>
</svg>
